HIERARCHY
ROOT Hips
{
	OFFSET 0.00000 0.00000 0.00000
	CHANNELS 6 Xposition Yposition Zposition Zrotation Yrotation Xrotation 
	JOINT LHipJoint
	{
		OFFSET 0 0 0
		CHANNELS 3 Zrotation Yrotation Xrotation
		JOINT LeftHip
		{
			OFFSET 1.58161 -1.81893 0.78828
			CHANNELS 3 Zrotation Yrotation Xrotation
			JOINT LeftKnee
			{
				OFFSET 2.53374 -6.96141 0.00000
				CHANNELS 3 Zrotation Yrotation Xrotation
				JOINT LeftAnkle
				{
					OFFSET 2.63509 -7.23986 0.00000
					CHANNELS 3 Zrotation Yrotation Xrotation
					JOINT LeftToe
					{
						OFFSET 0.14115 -0.38781 2.05350
						CHANNELS 3 Zrotation Yrotation Xrotation
						End Site
						{
							OFFSET 0.00000 -0.00000 1.05543
						}
					}
				}
			}
		}
	}
	JOINT RHipJoint
	{
		OFFSET 0 0 0
		CHANNELS 3 Zrotation Yrotation Xrotation
		JOINT RightHip
		{
			OFFSET -1.11138 -1.81893 0.78828
			CHANNELS 3 Zrotation Yrotation Xrotation
			JOINT RightKnee
			{
				OFFSET -2.58392 -7.09926 0.00000
				CHANNELS 3 Zrotation Yrotation Xrotation
				JOINT RightAnkle
				{
					OFFSET -2.66423 -7.31992 0.00000
					CHANNELS 3 Zrotation Yrotation Xrotation
					JOINT RightToe
					{
						OFFSET -0.18831 -0.51739 2.12114
						CHANNELS 3 Zrotation Yrotation Xrotation
						End Site
						{
							OFFSET -0.00000 -0.00000 1.09845
						}
					}
				}
			}
		}
	}
	JOINT lowerback
	{
		OFFSET 0 0 0
		CHANNELS 3 Zrotation Yrotation Xrotation
		JOINT Chest
		{
			OFFSET -0.01511 1.97958 -0.08829
			CHANNELS 3 Zrotation Yrotation Xrotation
			JOINT Chest2
			{
				OFFSET 0.08344 1.97334 -0.04330
				CHANNELS 3 Zrotation Yrotation Xrotation
				JOINT lowerneck
				{
					OFFSET 0 0 0
					CHANNELS 3 Zrotation Yrotation Xrotation
					JOINT Neck
					{
						OFFSET 0.00559 1.76246 0.31246
						CHANNELS 3 Zrotation Yrotation Xrotation
						JOINT Head
						{
							OFFSET -0.07011 1.80354 -0.30524
							CHANNELS 3 Zrotation Yrotation Xrotation
							End Site
							{
								OFFSET -0.02385 1.83547 -0.13906
							}
						}
					}
				}
				JOINT LeftCollar
				{
					OFFSET 0 0 0
					CHANNELS 3 Zrotation Yrotation Xrotation
					JOINT LeftShoulder
					{
						OFFSET 3.20667 1.30156 -0.60240
CHANNELS 3 Zrotation Xrotation Yrotation
						JOINT LeftElbow
						{
OFFSET 0 -4.956630 0.000000
CHANNELS 3 Zrotation Xrotation Yrotation
							JOINT LeftWrist
							{
OFFSET 0 -3.381770 0.000000
CHANNELS 3 Zrotation Xrotation Yrotation
								JOINT lhand
								{
									OFFSET 0 0 0
CHANNELS 3 Zrotation Xrotation Yrotation
									JOINT LFingers
									{
OFFSET 0 -0.662910 0.000000
CHANNELS 3 Zrotation Xrotation Yrotation
										End Site
										{
OFFSET 0 -0.534450 0.000000
										}
									}
								}
								JOINT LThumb
								{
OFFSET 0 0.000000 0.000000
CHANNELS 3 Zrotation Xrotation Yrotation
									End Site
									{
OFFSET 0 -0.542610 0.542610
									}
								}
							}
						}
					}
				}
				JOINT RightCollar
				{
					OFFSET 0 0 0
					CHANNELS 3 Zrotation Yrotation Xrotation
					JOINT RightShoulder
					{
						OFFSET -3.06877 1.34672 -0.60964
CHANNELS 3 Zrotation Xrotation Yrotation
						JOINT RightElbow
						{
OFFSET 0 -5.083650 0.000000
CHANNELS 3 Zrotation Xrotation Yrotation
							JOINT RightWrist
							{
OFFSET 0 -3.359840 0.000000
CHANNELS 3 Zrotation Xrotation Yrotation
								JOINT rhand
								{
									OFFSET 0 0 0
CHANNELS 3 Zrotation Xrotation Yrotation
									JOINT RFingers
									{
OFFSET 0 -0.820760 0.000000
CHANNELS 3 Zrotation Xrotation Yrotation
										End Site
										{
OFFSET 0 -0.661720 0.000000
										}
									}
								}
								JOINT RThumb
								{
OFFSET 0 0.000000 0.000000
CHANNELS 3 Zrotation Xrotation Yrotation
									End Site
									{
OFFSET 0 -0.671820 0.671820
									}
								}
							}
						}
					}
				}
			}
		}
	}
}
MOTION
Frames: 9
Frame Time: 0.008333333333333333
1.711003 13.621336 -4.336860 -4.334626 -4.543355 19.126162 0.000000 0.000000 0.000000 -5.114183 -9.236545 -82.352765 20.462994 19.994020 91.353826 1.314512 -12.865080 -21.096866 0.091505 -1.937320 -5.332803 0.000000 0.000000 0.000000 26.097405 -14.916318 -79.827239 -25.558037 -19.241716 106.450953 -1.940437 5.715340 -25.148557 -0.321824 3.645875 -10.082448 -0.737287 7.431953 33.779490 6.180258 9.018610 15.766686 4.033220 4.021250 -0.924431 -3.683683 -4.122323 -15.462855 -9.247262 -2.232612 24.284513 -2.951915 -2.363706 10.309162 0.000000 0.000000 0.000000 7.747597 -13.381665 -63.271357 96.059413 -59.859611 65.245079 29.798540 9.305783 -10.751965 0.000000 0.000000 0.000000 -7.125000 0.000000 0.000000 2.453847 42.309213 0.165119 0.000000 0.000000 0.000000 -21.495968 -60.733454 21.950210 -13.888109 -22.574492 -2.785026 -40.793231 -32.524651 -20.289026 0.000000 0.000000 0.000000 7.125000 0.000000 0.000000 -7.661152 4.151426 -7.151923
1.724280 13.541640 -4.329711 -4.272437 -4.524240 19.102682 0.000000 0.000000 0.000000 -5.075123 -9.345937 -82.842169 20.766239 19.985371 92.240962 1.356229 -12.785508 -21.377172 0.116681 -2.201948 -6.064087 0.000000 0.000000 0.000000 25.998525 -15.324784 -80.379715 -25.852995 -19.157408 107.347594 -1.963135 6.102722 -25.262043 -0.337261 3.731427 -10.322294 -0.858630 7.409885 33.974356 6.383712 8.955281 15.920082 4.320105 3.970121 -0.874637 -4.217491 -4.149064 -15.659215 -9.102106 -2.140011 24.382095 -2.810506 -2.359717 10.404032 0.000000 0.000000 0.000000 7.625380 -13.291430 -63.046679 96.941503 -59.816518 66.007777 30.051427 9.009401 -10.195586 0.000000 0.000000 0.000000 -7.125000 0.000000 0.000000 2.711271 41.702319 0.220860 0.000000 0.000000 0.000000 -21.967760 -61.210585 21.691711 -13.841945 -22.508295 -2.767350 -40.892839 -32.868637 -20.378793 0.000000 0.000000 0.000000 7.125000 0.000000 0.000000 -7.703006 4.012077 -7.211846
1.735201 13.461401 -4.322984 -4.177796 -4.510867 19.063670 0.000000 0.000000 0.000000 -5.088338 -9.422695 -83.325348 21.067731 19.972552 93.123204 1.398248 -12.896846 -21.694886 0.108134 -2.120046 -5.837611 0.000000 0.000000 0.000000 25.865742 -15.755974 -80.925725 -26.144992 -19.069413 108.238856 -1.986558 6.457471 -25.387071 -0.357836 3.842844 -10.635023 -1.116916 7.395008 34.192127 6.630920 8.870135 15.995336 4.720908 3.900801 -0.941662 -4.875552 -4.146374 -15.674092 -8.913376 -1.991084 24.531892 -2.621776 -2.334394 10.488386 0.000000 0.000000 0.000000 7.342167 -12.971183 -62.718598 97.771438 -59.770463 66.725029 30.143378 8.970468 -9.988577 0.000000 0.000000 0.000000 -7.125000 0.000000 0.000000 2.802985 41.475131 0.243966 0.000000 0.000000 0.000000 -22.331134 -61.517775 21.817451 -13.840441 -22.506159 -2.766717 -40.967064 -33.352529 -20.503188 0.000000 0.000000 0.000000 7.125000 0.000000 0.000000 -7.722077 3.838462 -7.255211
1.742273 13.382084 -4.317951 -4.173815 -4.488643 19.003878 0.000000 0.000000 0.000000 -4.999732 -9.418797 -83.800831 21.367915 19.954422 94.002597 1.424413 -13.164648 -21.929482 0.081579 -1.836121 -5.053164 0.000000 0.000000 0.000000 25.840782 -16.121900 -81.368530 -26.415516 -18.982573 109.069165 -2.014983 6.694391 -25.556814 -0.357323 3.840436 -10.628131 -0.560102 7.600164 34.678956 6.457533 9.255379 16.048426 4.100584 4.117702 -0.971745 -4.083117 -4.463151 -15.936016 -8.963997 -2.616777 24.512296 -2.859414 -2.554195 10.484543 0.000000 0.000000 0.000000 8.145575 -13.452338 -63.634832 98.462073 -59.727179 67.321604 30.415727 8.776688 -9.790958 0.000000 0.000000 0.000000 -7.125000 0.000000 0.000000 3.054548 41.276265 0.281234 0.000000 0.000000 0.000000 -23.629360 -61.696516 19.031119 -13.741350 -22.363644 -2.728912 -41.001963 -33.357180 -20.759496 0.000000 0.000000 0.000000 7.125000 0.000000 0.000000 -7.689583 3.517311 -7.270099
1.749517 13.304421 -4.312013 -4.163584 -4.486812 18.950456 0.000000 0.000000 0.000000 -4.941127 -9.377398 -84.269198 21.661387 19.932889 94.862895 1.438182 -13.373925 -22.066544 0.070839 -1.716798 -4.723607 0.000000 0.000000 0.000000 25.800015 -16.484584 -81.797373 -26.677245 -18.894868 109.875766 -2.032555 6.999619 -25.651194 -0.355037 3.828311 -10.594163 -0.259761 7.722618 35.059110 6.413977 9.481512 16.048723 3.799357 4.239911 -1.067033 -3.576692 -4.638775 -15.676617 -9.231270 -2.975095 24.176156 -3.060554 -2.686783 10.278856 0.000000 0.000000 0.000000 8.684742 -13.532361 -64.176225 99.321323 -59.667818 68.063425 30.890220 8.706042 -9.596071 0.000000 0.000000 0.000000 -7.125000 0.000000 0.000000 3.485294 41.099906 0.336570 0.000000 0.000000 0.000000 -24.456007 -61.844934 17.208025 -13.620941 -22.190022 -2.683327 -40.999347 -33.242693 -20.924389 0.000000 0.000000 0.000000 7.125000 0.000000 0.000000 -7.653448 3.318715 -7.263654
1.758567 13.228236 -4.303181 -4.105105 -4.533087 18.892318 0.000000 0.000000 0.000000 -4.966472 -9.317973 -84.708206 21.949899 19.907906 95.709641 1.450568 -13.541959 -22.185257 0.063739 -1.626593 -4.474797 0.000000 0.000000 0.000000 25.668023 -16.862684 -82.219917 -26.938570 -18.803483 110.684644 -2.040187 7.377349 -25.678984 -0.360298 3.855924 -10.671839 -0.107027 7.815177 35.380111 6.406072 9.633501 16.036155 3.637210 4.317518 -1.175086 -3.268504 -4.759417 -15.246741 -9.490770 -3.220510 23.781115 -3.201891 -2.781276 10.028665 0.000000 0.000000 0.000000 9.100295 -13.447370 -64.547879 100.245310 -59.598440 68.860696 31.369525 8.761173 -9.540739 0.000000 0.000000 0.000000 -7.125000 0.000000 0.000000 3.916168 41.084919 0.378275 0.000000 0.000000 0.000000 -25.077015 -61.961075 15.866656 -13.521297 -22.046181 -2.645791 -41.064736 -33.166196 -21.023472 0.000000 0.000000 0.000000 7.125000 0.000000 0.000000 -7.671824 3.178186 -7.301545
1.770040 13.153003 -4.290988 -4.001004 -4.628442 18.828816 0.000000 0.000000 0.000000 -5.069093 -9.254214 -85.121403 22.236362 19.879284 96.551571 1.468636 -13.697267 -22.339852 0.051440 -1.458452 -4.011277 0.000000 0.000000 0.000000 25.435619 -17.251686 -82.635930 -27.202405 -18.707468 111.504845 -2.042264 7.792911 -25.672648 -0.376088 3.938627 -10.904193 0.014923 7.918331 35.686293 6.372939 9.787536 16.031384 3.465784 4.395427 -1.267493 -3.087889 -4.899544 -14.909508 -9.562362 -3.486566 23.527439 -3.265859 -2.880879 9.853773 0.000000 0.000000 0.000000 9.499651 -13.376333 -64.921639 101.139073 -59.525422 69.631374 31.671594 8.931580 -9.672291 0.000000 0.000000 0.000000 -7.125000 0.000000 0.000000 4.183754 41.268070 0.385931 0.000000 0.000000 0.000000 -25.707917 -62.036338 14.608866 -13.462928 -21.961830 -2.623932 -41.267795 -33.285076 -21.098922 0.000000 0.000000 0.000000 7.125000 0.000000 0.000000 -7.777656 3.022179 -7.426672
1.782939 13.077511 -4.277694 -3.942051 -4.722372 18.783711 0.000000 0.000000 0.000000 -5.124168 -9.190909 -85.567311 22.526064 19.846128 97.404059 1.492534 -13.881723 -22.539660 0.032924 -1.168275 -3.211966 0.000000 0.000000 0.000000 25.219668 -17.599946 -83.032381 -27.460929 -18.609186 112.312544 -2.049781 8.136897 -25.709840 -0.394209 4.031369 -11.164853 0.182604 8.032044 35.994353 6.352760 9.969619 16.013658 3.273889 4.488169 -1.370523 -3.123103 -5.089935 -14.728771 -9.314679 -3.812669 23.522691 -3.205007 -3.000369 9.808431 0.000000 0.000000 0.000000 9.839997 -13.317538 -65.312630 101.930946 -59.454995 70.313570 31.602117 9.209253 -9.867905 0.000000 0.000000 0.000000 -7.125000 0.000000 0.000000 4.117363 41.487819 0.357444 0.000000 0.000000 0.000000 -26.389796 -62.047021 13.433599 -13.431117 -21.915696 -2.611983 -41.625471 -33.827842 -21.218095 0.000000 0.000000 0.000000 7.125000 0.000000 0.000000 -7.966465 2.762469 -7.648637
1.794893 13.001366 -4.266724 -3.958478 -4.787761 18.750080 0.000000 0.000000 0.000000 -5.081859 -9.116710 -86.045245 22.813732 19.808469 98.252262 1.530738 -13.916508 -22.801486 0.034595 -1.200754 -3.301391 0.000000 0.000000 0.000000 25.083818 -17.884952 -83.402615 -27.705945 -18.511631 113.082770 -2.061293 8.417268 -25.777823 -0.419157 4.154903 -11.513022 0.402498 8.093324 36.254121 6.338246 10.105659 15.997458 3.081921 4.560796 -1.444577 -3.287509 -5.265076 -14.613175 -8.956612 -4.095344 23.670156 -3.088309 -3.103373 9.840430 0.000000 0.000000 0.000000 10.129508 -13.235649 -65.585611 102.506335 -59.400253 70.808985 31.786812 9.510093 -9.640720 0.000000 0.000000 0.000000 -7.125000 0.000000 0.000000 4.287498 41.243157 0.398527 0.000000 0.000000 0.000000 -26.901960 -62.117180 12.399145 -13.407658 -21.881617 -2.603230 -41.837687 -33.922463 -21.043370 0.000000 0.000000 0.000000 7.125000 0.000000 0.000000 -8.131018 2.905659 -7.788177
